<?xml version="1.0" encoding="utf-8"?>
<!-- Generator: Adobe Illustrator 19.0.0, SVG Export Plug-In . SVG Version: 6.00 Build 0)  -->
<svg version="1.1" id="图层_1" xmlns="http://www.w3.org/2000/svg" xmlns:xlink="http://www.w3.org/1999/xlink" x="0px" y="0px"
	 viewBox="-379 181 200 200" style="enable-background:new -379 181 200 200;" xml:space="preserve">
<style type="text/css">
	.st0{fill:#666666;}
</style>
<path class="st0" d="M-364.9,220.1h14.1c3.1,13.3,15.6,23.4,30.5,23.4c14.8,0,26.6-10.1,30.5-23.4h96.9c3.9,0,7.8-3.1,7.8-7.8
	c0-3.9-3.9-7.8-7.8-7.8h-96.9c-3.1-13.3-15.6-23.4-30.5-23.4s-26.6,10.1-30.5,23.4h-14.1c-3.9,0-7.8,3.9-7.8,7.8
	C-372.8,216.9-368.9,220.1-364.9,220.1z M-320.4,195.8c8.6,0,15.6,7,15.6,15.6s-7,15.6-15.6,15.6s-15.6-7-15.6-15.6
	S-329,195.8-320.4,195.8z M-193.1,341.9H-290c-3.1-13.3-15.6-23.4-30.5-23.4c-14.8,0-26.6,10.1-30.5,23.4h-14.1
	c-3.9,0-7.8,3.9-7.8,7.8c0,4.7,3.9,7.8,7.8,7.8h14.1c3.1,13.3,15.6,23.4,30.5,23.4c14.8,0,26.6-10.1,30.5-23.4h96.9
	c3.9,0,7.8-3.1,7.8-7.8C-185.2,345.1-189.2,341.9-193.1,341.9L-193.1,341.9z M-320.4,364.6c-8.6,0-15.6-7-15.6-15.6
	c0-8.6,7-15.6,15.6-15.6s15.6,7,15.6,15.6C-304.8,357.6-311.8,364.6-320.4,364.6z M-364.9,289.6h92.2c3.1,13.3,15.6,23.4,30.5,23.4
	s26.6-10.1,30.5-23.4h18.7c3.9,0,7.8-3.1,7.8-7.8c0-3.9-3.9-7.8-7.8-7.8h-18.7c-3.1-13.3-15.6-23.4-30.5-23.4
	c-14.8,0-26.6,10.1-30.5,23.4h-92.2c-3.9,0-7.8,3.9-7.8,7.8C-372.8,286.5-368.9,289.6-364.9,289.6z M-242.3,265.4
	c8.6,0,15.6,7,15.6,15.6c0,8.6-7,15.6-15.6,15.6s-15.6-7-15.6-15.6C-257.9,272.4-250.9,265.4-242.3,265.4z"/>
</svg>
