<?xml version="1.0" encoding="utf-8"?>
<!-- Generator: Adobe Illustrator 19.0.0, SVG Export Plug-In . SVG Version: 6.00 Build 0)  -->
<svg version="1.1" id="图层_1" xmlns="http://www.w3.org/2000/svg" xmlns:xlink="http://www.w3.org/1999/xlink" x="0px" y="0px"
	 viewBox="-379 181 200 200" style="enable-background:new -379 181 200 200;" xml:space="preserve">
<style type="text/css">
	.st0{fill:#666666;}
</style>
<g>
	<path class="st0" d="M-216.5,300.7c3.9,0,7-3.1,7-7c0-9.4-1.8-18.5-5.5-27.1c-3.5-8.3-8.5-15.7-14.9-22.1s-13.8-11.4-22.1-14.9
		c-8.6-3.6-17.7-5.5-27.1-5.5s-18.5,1.8-27.1,5.5c-8.3,3.5-15.7,8.5-22.1,14.9s-11.4,13.8-14.9,22.1c-3.6,8.6-5.5,17.7-5.5,27.1
		c0,3.9,3.1,7,7,7s7-3.1,7-7c0-14.8,5.8-28.8,16.3-39.3s24.4-16.3,39.3-16.3s28.8,5.8,39.3,16.3c10.5,10.5,16.3,24.4,16.3,39.3
		C-223.5,297.6-220.4,300.7-216.5,300.7L-216.5,300.7z"/>
	<path class="st0" d="M-272.8,341.7v-56.2c0-3.5-2.8-6.3-6.3-6.3s-6.3,2.8-6.3,6.3v56.2c-4.6,2.3-7.8,7.1-7.8,12.6
		c0,7.8,6.3,14.1,14.1,14.1s14.1-6.3,14.1-14.1C-264.9,348.8-268.1,344-272.8,341.7L-272.8,341.7z"/>
	<path class="st0" d="M-186.9,254.6c-5-11.9-12.3-22.6-21.4-31.8s-19.9-16.4-31.8-21.4c-12.3-5.2-25.4-7.9-38.9-7.9
		s-26.6,2.6-38.9,7.9c-11.9,5-22.6,12.3-31.8,21.4s-16.4,19.9-21.4,31.8c-5.2,12.3-7.9,25.4-7.9,38.9c0,14.1,2.9,27.7,8.6,40.5
		c5.5,12.4,13.3,23.3,23.2,32.6c2.8,2.7,7.3,2.5,9.9-0.3s2.5-7.3-0.3-9.9c-8.5-8-15.3-17.4-20-28c-4.9-11-7.4-22.7-7.4-34.8
		c0-11.6,2.3-22.9,6.8-33.5c4.3-10.2,10.5-19.4,18.4-27.3s17.1-14.1,27.3-18.4c10.6-4.5,21.8-6.7,33.4-6.7s22.9,2.3,33.5,6.8
		c10.2,4.3,19.4,10.5,27.3,18.4c7.9,7.9,14.1,17.1,18.4,27.3c4.5,10.6,6.7,21.8,6.7,33.4c0,12.1-2.5,23.8-7.3,34.8
		c-4.7,10.6-11.4,20-20,28c-2.8,2.7-3,7.1-0.3,9.9c1.4,1.5,3.3,2.2,5.1,2.2c1.7,0,3.4-0.6,4.8-1.9c9.9-9.3,17.7-20.2,23.2-32.6
		c5.7-12.8,8.5-26.4,8.5-40.5C-179,280-181.6,266.9-186.9,254.6z"/>
</g>
</svg>
