<?xml version="1.0" encoding="utf-8"?>
<!-- Generator: Adobe Illustrator 19.0.0, SVG Export Plug-In . SVG Version: 6.00 Build 0)  -->
<svg version="1.1" id="图层_1" xmlns="http://www.w3.org/2000/svg" xmlns:xlink="http://www.w3.org/1999/xlink" x="0px" y="0px"
	 viewBox="-379 181 200 200" style="enable-background:new -379 181 200 200;" xml:space="preserve">
<style type="text/css">
	.st0{fill:#666666;}
</style>
<g>
	<path class="st0" d="M-199.3,197h-27.5v35.6h-17.4V197h-11.6v35.6h-17.4V197h-11.6v35.6h-17.4V197h-11.6v35.6h-17.4V197h-27.5
		c-11.2,0-20.3,9-20.3,19.9v128.1c0,11,9.1,19.9,20.3,19.9h159.4c11.2,0,20.3-9,20.3-19.9V216.9C-179,206-188.1,197-199.3,197z
		 M-190.6,253.9h-23.2v11.4h23.2v79.7c0,4.7-3.9,8.5-8.7,8.5h0h-159.4c-4.8,0-8.7-3.8-8.7-8.5v-79.7h23.2v-11.4h-23.2v-37
		c0-4.7,3.9-8.5,8.7-8.5h15.9V244h127.5v-35.6h15.9c4.8,0,8.7,3.8,8.7,8.5V253.9z"/>
	<path class="st0" d="M-270.3,336.5h62.3v-54.1h-62.3V336.5z M-258.7,293.8h39.1v31.3h-39.1V293.8z"/>
	<path class="st0" d="M-349.3,336.5h62.3v-54.1h-62.3V336.5z M-337.7,293.8h39.1v31.3h-39.1V293.8z"/>
</g>
</svg>
