<?xml version="1.0" encoding="utf-8"?>
<!-- Generator: Adobe Illustrator 19.0.0, SVG Export Plug-In . SVG Version: 6.00 Build 0)  -->
<svg version="1.1" id="图层_1" xmlns="http://www.w3.org/2000/svg" xmlns:xlink="http://www.w3.org/1999/xlink" x="0px" y="0px"
	 viewBox="-370 181 218.4 200" style="enable-background:new -370 181 218.4 200;" xml:space="preserve">
<style type="text/css">
	.st0{fill:#666666;}
</style>
<g>
	<path class="st0" d="M-161,210.7c-9.8-18.7-27.5-28.9-51.1-29.5c-15.7-0.4-33.7,3.6-49.8,11.2c-35.9-16.8-81.7-18.2-101,18.3
		c-2.9,5.5-5.2,11.3-6.8,17.4c-1,4.1,1.5,8.3,5.6,9.3c4,1,8.1-1.4,9.3-5.4c1.3-4.9,3.2-9.7,5.6-14.1c17.2-32.7,62.3-21,83.7-10.2
		c1.1,0.6,2.7,0.8,3.9,0.8c1.2,0,2.4-0.3,3.5-0.8c14.8-7.5,31.5-11.6,45.8-11.2c17.9,0.5,30.7,7.6,37.9,21.3
		c32.4,61.4-48.6,123.3-85,147.1c-1.5,0.9-3.4,0.9-4.8,0c-27.2-17.8-73.3-52.7-88-92.8h26.3l11.5,25.2c1.2,2.7,3.9,4.4,6.9,4.5h0.1
		c2.9,0,5.6-1.7,6.9-4.3l22.8-46.6l1,2.2c1.8,3.9,6.3,5.6,10.2,3.8c3.9-1.8,5.6-6.3,3.8-10.2l-7.7-17c-1.2-2.7-3.9-4.5-6.9-4.5h-0.1
		c-2.9,0-5.6,1.7-6.9,4.3l-22.8,46.6l-6.8-14.9c-1.3-2.7-4-4.5-7-4.5h-41.2c-4.3,0-7.7,3.4-7.7,7.7c0,0.5,0,1,0.1,1.5
		c0,0.8,0,1.5,0.2,2.3c12.4,48.3,66,89.3,96.9,109.5c6.6,4.3,15.1,4.3,21.7,0C-211.2,351.7-122.7,283.2-161,210.7z"/>
	<path class="st0" d="M-269.4,268.1c-0.1,3.9,3.1,7.2,7,7.3c3.9,0.1,7.2-3.1,7.3-7c0-0.1,0-0.2,0-0.3c-0.1-3.9-3.3-7.1-7.3-7
		C-266.2,261.1-269.3,264.2-269.4,268.1z M-260.9,288.1l10.4,22.8c1.2,2.6,3.7,4.3,6.5,4.5h0.4c2.7,0,5.2-1.4,6.6-3.7l22.2-37.1
		h26.9c4.3,0,7.7-3.4,7.7-7.7c0-4.3-3.4-7.7-7.7-7.7c0,0,0,0,0,0h-31.3c-2.7,0-5.2,1.4-6.6,3.7l-16.9,28.3l-4.3-9.5
		c-1.7-3.9-6.3-5.6-10.1-3.9C-260.9,279.6-262.7,284.1-260.9,288.1C-260.9,288-260.9,288-260.9,288.1L-260.9,288.1z"/>
</g>
</svg>
